<svg xmlns="http://www.w3.org/2000/svg" width="1200" height="430" viewBox="0 0 1200 430" role="img" aria-labelledby="title desc"><title id="title">Exemplos de topologias de comunicação entre agentes</title><desc id="desc">Diagrama autoral em português. Exemplos de topologias de comunicação entre agentes.</desc><defs><marker id="a" markerWidth="9" markerHeight="9" refX="8" refY="4" orient="auto" markerUnits="userSpaceOnUse"><path d="M0,0 L8,4 L0,8 Z" fill="#334155"/></marker></defs><rect width="1200" height="430" fill="white"/><rect x="15" y="20" width="270" height="320" rx="5" fill="#ffffff" stroke="#c1c8d0" stroke-width="2"/><rect x="315" y="20" width="270" height="320" rx="5" fill="#ffffff" stroke="#c1c8d0" stroke-width="2"/><rect x="615" y="20" width="270" height="320" rx="5" fill="#ffffff" stroke="#c1c8d0" stroke-width="2"/><rect x="915" y="20" width="270" height="320" rx="5" fill="#ffffff" stroke="#c1c8d0" stroke-width="2"/><g font-family="Arial, Helvetica, sans-serif" fill="#17212b"><polyline points="133.95018150891812,174.95329516461075 86.04981849108188,130.04670483538925" fill="none" stroke="#334155" stroke-width="2.5"/><polyline points="166.04981849108188,174.95329516461075 213.95018150891812,130.04670483538925" fill="none" stroke="#334155" stroke-width="2.5"/><polyline points="134.9219766218902,206.02039983924166 85.0780233781098,258.9796001607583" fill="none" stroke="#334155" stroke-width="2.5"/><polyline points="165.0780233781098,206.02039983924166 214.9219766218902,258.9796001607583" fill="none" stroke="#334155" stroke-width="2.5"/><polyline points="367.0,190.0 393.0,190.0" fill="none" stroke="#334155" stroke-width="2.5"/><polyline points="437.0,190.0 463.0,190.0" fill="none" stroke="#334155" stroke-width="2.5"/><polyline points="507.0,190.0 533.0,190.0" fill="none" stroke="#334155" stroke-width="2.5"/><polyline points="737.556319770061,129.35809257300653 697.443680229939,175.64190742699347" fill="none" stroke="#334155" stroke-width="2.5"/><polyline points="762.443680229939,129.35809257300653 802.556319770061,175.64190742699347" fill="none" stroke="#334155" stroke-width="2.5"/><polyline points="679.332775130417,208.13511958266557 665.667224869583,251.86488041733443" fill="none" stroke="#334155" stroke-width="2.5"/><polyline points="691.6713453901795,207.79025437381185 708.3286546098205,252.20974562618815" fill="none" stroke="#334155" stroke-width="2.5"/><polyline points="809.332775130417,208.13511958266557 795.667224869583,251.86488041733443" fill="none" stroke="#334155" stroke-width="2.5"/><polyline points="821.6713453901795,207.79025437381185 838.3286546098205,252.20974562618815" fill="none" stroke="#334155" stroke-width="2.5"/><polyline points="1032.5241276745016,123.36390236655754 982.4758723254984,161.63609763344246" fill="none" stroke="#334155" stroke-width="2.5"/><polyline points="970.0956516007328,196.40173672307807 984.9043483992672,258.59826327692195" fill="none" stroke="#334155" stroke-width="2.5"/><polyline points="1012.0,280.0 1098.0,280.0" fill="none" stroke="#334155" stroke-width="2.5"/><polyline points="1124.11646637358,258.38855153870554 1135.88353362642,196.61144846129446" fill="none" stroke="#334155" stroke-width="2.5"/><polyline points="1122.1650569752026,162.11920781542412 1067.8349430247974,122.88079218457588" fill="none" stroke="#334155" stroke-width="2.5"/><polyline points="1058.3764957155945,130.34291816644375 1111.6235042844055,259.6570818335563" fill="none" stroke="#334155" stroke-width="2.5"/><polyline points="983.2142111907433,187.33865919372934 1101.7857888092567,267.6613408062707" fill="none" stroke="#334155" stroke-width="2.5"/><text x="150.0" y="62" font-size="29" font-weight="700" text-anchor="middle"><tspan x="150.0" dy="0">Estrela</tspan></text><text x="450.0" y="62" font-size="29" font-weight="700" text-anchor="middle"><tspan x="450.0" dy="0">Cadeia</tspan></text><text x="750.0" y="62" font-size="29" font-weight="700" text-anchor="middle"><tspan x="750.0" dy="0">Árvore</tspan></text><text x="1050.0" y="62" font-size="29" font-weight="700" text-anchor="middle"><tspan x="1050.0" dy="0">Rede de pares</tspan></text><circle cx="70" cy="115" r="22" fill="#ffffff" stroke="#334155" stroke-width="2.5"/><circle cx="230" cy="115" r="22" fill="#ffffff" stroke="#334155" stroke-width="2.5"/><circle cx="70" cy="275" r="22" fill="#ffffff" stroke="#334155" stroke-width="2.5"/><circle cx="230" cy="275" r="22" fill="#ffffff" stroke="#334155" stroke-width="2.5"/><circle cx="150" cy="190" r="22" fill="#ffffff" stroke="#334155" stroke-width="2.5"/><circle cx="345" cy="190" r="22" fill="#ffffff" stroke="#334155" stroke-width="2.5"/><circle cx="415" cy="190" r="22" fill="#ffffff" stroke="#334155" stroke-width="2.5"/><circle cx="485" cy="190" r="22" fill="#ffffff" stroke="#334155" stroke-width="2.5"/><circle cx="555" cy="190" r="22" fill="#ffffff" stroke="#334155" stroke-width="2.5"/><circle cx="750" cy="115" r="19" fill="#ffffff" stroke="#334155" stroke-width="2.5"/><circle cx="685" cy="190" r="19" fill="#ffffff" stroke="#334155" stroke-width="2.5"/><circle cx="815" cy="190" r="19" fill="#ffffff" stroke="#334155" stroke-width="2.5"/><circle cx="660" cy="270" r="19" fill="#ffffff" stroke="#334155" stroke-width="2.5"/><circle cx="715" cy="270" r="19" fill="#ffffff" stroke="#334155" stroke-width="2.5"/><circle cx="790" cy="270" r="19" fill="#ffffff" stroke="#334155" stroke-width="2.5"/><circle cx="845" cy="270" r="19" fill="#ffffff" stroke="#334155" stroke-width="2.5"/><circle cx="1050" cy="110" r="22" fill="#ffffff" stroke="#334155" stroke-width="2.5"/><circle cx="965" cy="175" r="22" fill="#ffffff" stroke="#334155" stroke-width="2.5"/><circle cx="990" cy="280" r="22" fill="#ffffff" stroke="#334155" stroke-width="2.5"/><circle cx="1120" cy="280" r="22" fill="#ffffff" stroke="#334155" stroke-width="2.5"/><circle cx="1140" cy="175" r="22" fill="#ffffff" stroke="#334155" stroke-width="2.5"/><text x="600" y="395" font-size="28" font-weight="400" text-anchor="middle"><tspan x="600" dy="0">Nós representam agentes; linhas indicam conexões possíveis.</tspan></text></g></svg>