<svg xmlns="http://www.w3.org/2000/svg" width="1200" height="680" viewBox="0 0 1200 680" role="img" aria-labelledby="title desc"><title id="title">Tecnologias e registros de execução do MAB</title><desc id="desc">Diagrama autoral em português. Tecnologias e registros de execução do MAB.</desc><defs><marker id="a" markerWidth="9" markerHeight="9" refX="8" refY="4" orient="auto" markerUnits="userSpaceOnUse"><path d="M0,0 L8,4 L0,8 Z" fill="#334155"/></marker></defs><rect width="1200" height="680" fill="white"/><g font-family="Arial, Helvetica, sans-serif" fill="#17212b"><rect x="25" y="25" width="270" height="90" rx="5" fill="#f4f6f8" stroke="#334155" stroke-width="2"/><text x="160.0" y="79.52" font-size="28" font-weight="700" text-anchor="middle"><tspan x="160.0" dy="0">Interface</tspan></text><rect x="325" y="25" width="850" height="90" rx="5" fill="#f4f6f8" stroke="#334155" stroke-width="2"/><text x="750.0" y="79.52" font-size="28" font-weight="400" text-anchor="middle"><tspan x="750.0" dy="0">Next.js, React e TypeScript</tspan></text><rect x="25" y="140" width="270" height="90" rx="5" fill="#f4f6f8" stroke="#334155" stroke-width="2"/><text x="160.0" y="194.52" font-size="28" font-weight="700" text-anchor="middle"><tspan x="160.0" dy="0">API</tspan></text><rect x="325" y="140" width="850" height="90" rx="5" fill="#f4f6f8" stroke="#334155" stroke-width="2"/><text x="750.0" y="194.52" font-size="28" font-weight="400" text-anchor="middle"><tspan x="750.0" dy="0">FastAPI, Pydantic e SQLAlchemy</tspan></text><rect x="25" y="255" width="270" height="90" rx="5" fill="#f4f6f8" stroke="#334155" stroke-width="2"/><text x="160.0" y="309.52" font-size="28" font-weight="700" text-anchor="middle"><tspan x="160.0" dy="0">Execução</tspan></text><rect x="325" y="255" width="850" height="90" rx="5" fill="#f4f6f8" stroke="#334155" stroke-width="2"/><text x="750.0" y="309.52" font-size="28" font-weight="400" text-anchor="middle"><tspan x="750.0" dy="0">Strands Agents e Amazon Bedrock</tspan></text><rect x="25" y="370" width="270" height="90" rx="5" fill="#f4f6f8" stroke="#334155" stroke-width="2"/><text x="160.0" y="424.52" font-size="28" font-weight="700" text-anchor="middle"><tspan x="160.0" dy="0">Dados</tspan></text><rect x="325" y="370" width="850" height="90" rx="5" fill="#f4f6f8" stroke="#334155" stroke-width="2"/><text x="750.0" y="424.52" font-size="28" font-weight="400" text-anchor="middle"><tspan x="750.0" dy="0">PostgreSQL e armazenamento de anexos</tspan></text><rect x="25" y="515" width="1150" height="125" rx="5" fill="#f4f6f8" stroke="#334155" stroke-width="2"/><text x="600.0" y="568.7900000000001" font-size="26" font-weight="400" text-anchor="middle"><tspan x="600.0" dy="0">Registros de execução: chamadas, transferências, erros, tempo e tokens.</tspan><tspan x="600.0" dy="35.1">Atualizações da interface por SSE; exportação opcional por OpenTelemetry.</tspan></text></g></svg>